<svg xmlns="http://www.w3.org/2000/svg" width="16" height="16" viewBox="0 0 16 16" fill="none">
  <g clip-path="url(#clip0_17_6)">
    <path d="M8.00001 1.33333C11.6813 1.33333 14.6667 3.98533 14.6667 7.25933C14.6661 8.24147 14.2757 9.18322 13.5812 9.87763C12.8866 10.572 11.9448 10.9623 10.9627 10.9627H9.65201C9.03734 10.9627 8.54068 11.4593 8.54068 12.074C8.54068 12.3553 8.65201 12.6147 8.82201 12.8073C9.00001 13.0073 9.11134 13.2667 9.11134 13.5553C9.11134 14.1707 8.60001 14.6667 8.00001 14.6667C4.31868 14.6667 1.33334 11.6813 1.33334 8C1.33334 4.31866 4.31868 1.33333 8.00001 1.33333ZM7.20734 12.074C7.20708 11.7529 7.27013 11.4349 7.3929 11.1382C7.51566 10.8414 7.69572 10.5718 7.92278 10.3448C8.14984 10.1177 8.41945 9.93764 8.71617 9.81488C9.01289 9.69212 9.3309 9.62907 9.65201 9.62933H10.9627C11.5911 9.62898 12.1937 9.37928 12.6381 8.93506C13.0826 8.49084 13.3326 7.8884 13.3333 7.26C13.3333 4.75933 10.9787 2.66666 8.00001 2.66666C6.62373 2.66541 5.30024 3.19624 4.30626 4.14816C3.31229 5.10009 2.72478 6.39941 2.66658 7.77447C2.60838 9.14952 3.084 10.4938 3.99399 11.5263C4.90397 12.5589 6.17788 13.1996 7.54934 13.3147C7.32612 12.9395 7.20799 12.5112 7.20734 12.0747V12.074ZM5.00001 8C4.73479 8 4.48044 7.89464 4.2929 7.7071C4.10537 7.51957 4.00001 7.26521 4.00001 7C4.00001 6.73478 4.10537 6.48042 4.2929 6.29289C4.48044 6.10535 4.73479 6 5.00001 6C5.26523 6 5.51958 6.10535 5.70712 6.29289C5.89465 6.48042 6.00001 6.73478 6.00001 7C6.00001 7.26521 5.89465 7.51957 5.70712 7.7071C5.51958 7.89464 5.26523 8 5.00001 8ZM11 8C10.7348 8 10.4804 7.89464 10.2929 7.7071C10.1054 7.51957 10 7.26521 10 7C10 6.73478 10.1054 6.48042 10.2929 6.29289C10.4804 6.10535 10.7348 6 11 6C11.2652 6 11.5196 6.10535 11.7071 6.29289C11.8947 6.48042 12 6.73478 12 7C12 7.26521 11.8947 7.51957 11.7071 7.7071C11.5196 7.89464 11.2652 8 11 8ZM8.00001 6C7.73479 6 7.48044 5.89464 7.2929 5.7071C7.10537 5.51957 7.00001 5.26521 7.00001 4.99999C7.00001 4.73478 7.10537 4.48042 7.2929 4.29289C7.48044 4.10535 7.73479 3.99999 8.00001 3.99999C8.26523 3.99999 8.51958 4.10535 8.70712 4.29289C8.89465 4.48042 9.00001 4.73478 9.00001 4.99999C9.00001 5.26521 8.89465 5.51957 8.70712 5.7071C8.51958 5.89464 8.26523 6 8.00001 6Z" fill="white"/>
  </g>
  <defs>
    <clipPath id="clip0_17_6">
      <rect width="16" height="16" fill="white"/>
    </clipPath>
  </defs>
</svg>