<svg width="118" height="32" viewBox="0 0 118 32" fill="none" xmlns="http://www.w3.org/2000/svg">
<g id="logo">
<g id="typeform">
<path d="M17.688 25.888C17.976 25.888 18.232 26 18.456 26.224C18.696 26.464 18.816 26.736 18.816 27.04C18.816 27.376 18.656 27.696 18.336 28C18.032 28.304 17.632 28.576 17.136 28.816C16.656 29.056 16.144 29.24 15.6 29.368C15.072 29.512 14.584 29.584 14.136 29.584C13.16 29.584 12.368 29.488 11.76 29.296C11.152 29.104 10.64 28.888 10.224 28.648C9.80801 28.408 9.40001 28.192 9.00001 28C8.61601 27.808 8.15201 27.712 7.60801 27.712C7.30401 27.712 7.05601 27.76 6.86401 27.856C6.67201 27.952 6.47201 28.048 6.26401 28.144C6.05601 28.256 5.79201 28.312 5.47201 28.312C5.13601 28.312 4.85601 28.184 4.63201 27.928C4.40801 27.672 4.29601 27.392 4.29601 27.088C4.29601 26.576 4.52801 26.232 4.99201 26.056L9.67201 24.328L11.856 24.712L7.46401 26.296L8.49601 25.648C9.08801 25.648 9.60801 25.736 10.056 25.912C10.52 26.088 10.96 26.288 11.376 26.512C11.808 26.752 12.248 26.96 12.696 27.136C13.144 27.312 13.664 27.4 14.256 27.4C14.752 27.4 15.168 27.32 15.504 27.16C15.84 27 16.12 26.84 16.344 26.68C16.616 26.488 16.848 26.304 17.04 26.128C17.248 25.968 17.464 25.888 17.688 25.888ZM17.256 16.6C17.256 17.816 17.056 18.952 16.656 20.008C16.256 21.048 15.688 21.96 14.952 22.744C14.232 23.528 13.376 24.144 12.384 24.592C11.392 25.024 10.304 25.24 9.12001 25.24C7.95201 25.24 6.87201 25.024 5.88001 24.592C4.88801 24.144 4.02401 23.528 3.28801 22.744C2.56801 21.96 2.00801 21.048 1.60801 20.008C1.22401 18.952 1.03201 17.816 1.03201 16.6C1.03201 15.384 1.22401 14.256 1.60801 13.216C2.00801 12.16 2.56801 11.24 3.28801 10.456C4.02401 9.67199 4.88801 9.06399 5.88001 8.63199C6.87201 8.18399 7.95201 7.95999 9.12001 7.95999C10.304 7.95999 11.392 8.18399 12.384 8.63199C13.376 9.06399 14.232 9.67199 14.952 10.456C15.688 11.24 16.256 12.16 16.656 13.216C17.056 14.256 17.256 15.384 17.256 16.6ZM14.664 16.6C14.664 15.416 14.424 14.352 13.944 13.408C13.48 12.464 12.832 11.72 12 11.176C11.168 10.632 10.208 10.36 9.12001 10.36C8.04801 10.36 7.09601 10.632 6.26401 11.176C5.43201 11.72 4.78401 12.464 4.32001 13.408C3.85601 14.336 3.62401 15.4 3.62401 16.6C3.62401 17.784 3.85601 18.848 4.32001 19.792C4.78401 20.736 5.43201 21.48 6.26401 22.024C7.09601 22.568 8.04801 22.84 9.12001 22.84C10.208 22.84 11.168 22.568 12 22.024C12.832 21.48 13.48 20.736 13.944 19.792C14.424 18.848 14.664 17.784 14.664 16.6Z" fill="white"/>
<path d="M29.3693 12.376C29.7053 12.376 29.9853 12.496 30.2093 12.736C30.4493 12.96 30.5693 13.248 30.5693 13.6V19.912C30.5693 21.576 30.1053 22.88 29.1773 23.824C28.2493 24.752 26.9373 25.216 25.2413 25.216C23.5613 25.216 22.2573 24.752 21.3293 23.824C20.4173 22.88 19.9613 21.576 19.9613 19.912V13.6C19.9613 13.248 20.0733 12.96 20.2973 12.736C20.5213 12.496 20.8093 12.376 21.1613 12.376C21.4973 12.376 21.7773 12.496 22.0013 12.736C22.2413 12.96 22.3613 13.248 22.3613 13.6V19.912C22.3613 20.952 22.6013 21.728 23.0813 22.24C23.5773 22.752 24.2973 23.008 25.2413 23.008C26.2013 23.008 26.9293 22.752 27.4253 22.24C27.9213 21.728 28.1693 20.952 28.1693 19.912V13.6C28.1693 13.248 28.2813 12.96 28.5053 12.736C28.7293 12.496 29.0173 12.376 29.3693 12.376Z" fill="white"/>
<path d="M36.1626 23.776C36.1626 24.128 36.0506 24.424 35.8266 24.664C35.6026 24.888 35.3146 25 34.9626 25C34.6266 25 34.3386 24.888 34.0986 24.664C33.8746 24.424 33.7626 24.128 33.7626 23.776V13.504C33.7626 13.152 33.8746 12.864 34.0986 12.64C34.3386 12.4 34.6266 12.28 34.9626 12.28C35.3146 12.28 35.6026 12.4 35.8266 12.64C36.0506 12.864 36.1626 13.152 36.1626 13.504V23.776ZM34.9386 10.696C34.4746 10.696 34.1386 10.616 33.9306 10.456C33.7226 10.28 33.6186 9.99199 33.6186 9.59199V9.20799C33.6186 8.80799 33.7306 8.52799 33.9546 8.36799C34.1786 8.20799 34.5146 8.12799 34.9626 8.12799C35.4426 8.12799 35.7866 8.21599 35.9946 8.39199C36.2026 8.55199 36.3066 8.82399 36.3066 9.20799V9.59199C36.3066 10.008 36.1946 10.296 35.9706 10.456C35.7626 10.616 35.4186 10.696 34.9386 10.696Z" fill="white"/>
<path d="M44.9829 12.088C45.8469 12.088 46.6149 12.184 47.2869 12.376C47.959 12.552 48.479 12.808 48.847 13.144C49.2309 13.464 49.423 13.84 49.423 14.272C49.423 14.544 49.3429 14.8 49.1829 15.04C49.0229 15.264 48.7829 15.376 48.4629 15.376C48.2389 15.376 48.047 15.336 47.887 15.256C47.743 15.176 47.6069 15.08 47.479 14.968C47.351 14.856 47.191 14.744 46.999 14.632C46.823 14.536 46.5589 14.456 46.2069 14.392C45.8709 14.328 45.5669 14.296 45.2949 14.296C44.4469 14.296 43.7109 14.488 43.0869 14.872C42.4789 15.256 41.999 15.776 41.6469 16.432C41.311 17.088 41.1429 17.832 41.1429 18.664C41.1429 19.496 41.311 20.24 41.6469 20.896C41.999 21.552 42.471 22.072 43.063 22.456C43.671 22.84 44.375 23.032 45.1749 23.032C45.6549 23.032 46.0469 23 46.3509 22.936C46.6549 22.856 46.9189 22.76 47.1429 22.648C47.3829 22.504 47.583 22.36 47.743 22.216C47.9189 22.056 48.1589 21.976 48.4629 21.976C48.8149 21.976 49.079 22.088 49.255 22.312C49.447 22.52 49.5429 22.784 49.5429 23.104C49.5429 23.456 49.327 23.8 48.895 24.136C48.479 24.456 47.9189 24.72 47.215 24.928C46.511 25.136 45.735 25.24 44.887 25.24C43.639 25.24 42.5509 24.952 41.6229 24.376C40.7109 23.8 39.999 23.016 39.4869 22.024C38.991 21.032 38.743 19.912 38.743 18.664C38.743 17.4 39.007 16.28 39.535 15.304C40.063 14.312 40.799 13.528 41.743 12.952C42.687 12.376 43.7669 12.088 44.9829 12.088Z" fill="white"/>
<path d="M53.2283 25C52.8923 25 52.6043 24.888 52.3643 24.664C52.1403 24.424 52.0283 24.128 52.0283 23.776V8.46399C52.0283 8.11199 52.1403 7.82399 52.3643 7.59999C52.6043 7.35999 52.8923 7.23999 53.2283 7.23999C53.5803 7.23999 53.8683 7.35999 54.0923 7.59999C54.3163 7.82399 54.4283 8.11199 54.4283 8.46399V23.776C54.4283 24.128 54.3163 24.424 54.0923 24.664C53.8683 24.888 53.5803 25 53.2283 25ZM61.0523 12.328C61.3563 12.328 61.6203 12.456 61.8443 12.712C62.0683 12.968 62.1803 13.224 62.1803 13.48C62.1803 13.8 62.0283 14.096 61.7243 14.368L54.2123 21.088L54.1163 18.328L60.1643 12.712C60.4203 12.456 60.7163 12.328 61.0523 12.328ZM61.3403 24.976C61.0043 24.976 60.7163 24.84 60.4763 24.568L55.6763 19.504L57.5003 17.824L62.1803 22.888C62.4363 23.16 62.5643 23.464 62.5643 23.8C62.5643 24.152 62.4203 24.44 62.1323 24.664C61.8603 24.872 61.5963 24.976 61.3403 24.976Z" fill="white"/>
<path d="M64.3579 23.032C64.2139 22.808 64.1499 22.552 64.1659 22.264C64.1819 21.96 64.3499 21.704 64.6699 21.496C64.8939 21.352 65.1259 21.296 65.3659 21.328C65.6219 21.344 65.8619 21.464 66.0859 21.688C66.5339 22.184 67.0299 22.576 67.5739 22.864C68.1339 23.152 68.8059 23.296 69.5899 23.296C69.9099 23.28 70.2379 23.232 70.5739 23.152C70.9099 23.056 71.1979 22.896 71.4379 22.672C71.6779 22.432 71.7979 22.088 71.7979 21.64C71.7979 21.24 71.6699 20.92 71.4139 20.68C71.1579 20.44 70.8219 20.248 70.4059 20.104C69.9899 19.944 69.5419 19.8 69.0619 19.672C68.5499 19.528 68.0299 19.368 67.5019 19.192C66.9899 19.016 66.5259 18.792 66.1099 18.52C65.6939 18.232 65.3499 17.864 65.0779 17.416C64.8219 16.968 64.6939 16.416 64.6939 15.76C64.6939 15.008 64.9019 14.36 65.3179 13.816C65.7499 13.272 66.3019 12.848 66.9739 12.544C67.6619 12.24 68.4059 12.088 69.2059 12.088C69.6699 12.088 70.1579 12.152 70.6699 12.28C71.1819 12.392 71.6779 12.576 72.1579 12.832C72.6379 13.088 73.0539 13.424 73.4059 13.84C73.5659 14.048 73.6539 14.296 73.6699 14.584C73.7019 14.872 73.5739 15.128 73.2859 15.352C73.0939 15.512 72.8619 15.584 72.5899 15.568C72.3179 15.552 72.0939 15.464 71.9179 15.304C71.6139 14.92 71.2219 14.624 70.7419 14.416C70.2619 14.192 69.7179 14.08 69.1099 14.08C68.8059 14.08 68.4859 14.128 68.1499 14.224C67.8299 14.304 67.5579 14.456 67.3339 14.68C67.1099 14.904 66.9979 15.232 66.9979 15.664C66.9979 16.064 67.1259 16.384 67.3819 16.624C67.6539 16.864 68.0059 17.064 68.4379 17.224C68.8699 17.384 69.3419 17.528 69.8539 17.656C70.3499 17.784 70.8379 17.936 71.3179 18.112C71.8139 18.288 72.2539 18.52 72.6379 18.808C73.0379 19.08 73.3579 19.44 73.5979 19.888C73.8539 20.32 73.9819 20.872 73.9819 21.544C73.9819 22.328 73.7499 23 73.2859 23.56C72.8379 24.104 72.2619 24.52 71.5579 24.808C70.8699 25.096 70.1419 25.24 69.3739 25.24C68.4619 25.24 67.5499 25.08 66.6379 24.76C65.7419 24.424 64.9819 23.848 64.3579 23.032Z" fill="white"/>
<path d="M82.4428 25.24C81.1148 25.24 79.9628 24.968 78.9868 24.424C78.0108 23.864 77.2508 23.104 76.7068 22.144C76.1788 21.168 75.9148 20.056 75.9148 18.808C75.9148 17.4 76.1948 16.2 76.7548 15.208C77.3308 14.2 78.0748 13.432 78.9868 12.904C79.8988 12.36 80.8668 12.088 81.8908 12.088C82.6748 12.088 83.4188 12.248 84.1228 12.568C84.8268 12.872 85.4508 13.304 85.9948 13.864C86.5548 14.408 86.9948 15.056 87.3148 15.808C87.6348 16.544 87.8028 17.352 87.8188 18.232C87.8028 18.552 87.6748 18.816 87.4348 19.024C87.1948 19.232 86.9148 19.336 86.5948 19.336H77.2588L76.6828 17.296H85.7068L85.2508 17.728V17.128C85.2188 16.568 85.0348 16.08 84.6988 15.664C84.3628 15.232 83.9468 14.904 83.4508 14.68C82.9548 14.44 82.4348 14.32 81.8908 14.32C81.4108 14.32 80.9468 14.4 80.4988 14.56C80.0668 14.704 79.6748 14.944 79.3228 15.28C78.9868 15.616 78.7148 16.064 78.5068 16.624C78.3148 17.168 78.2188 17.848 78.2188 18.664C78.2188 19.544 78.4028 20.312 78.7708 20.968C79.1388 21.624 79.6348 22.136 80.2588 22.504C80.8828 22.856 81.5708 23.032 82.3228 23.032C82.9148 23.032 83.4028 22.976 83.7868 22.864C84.1708 22.736 84.4908 22.584 84.7468 22.408C85.0028 22.232 85.2268 22.064 85.4188 21.904C85.6588 21.76 85.8988 21.688 86.1388 21.688C86.4268 21.688 86.6668 21.792 86.8588 22C87.0508 22.192 87.1468 22.424 87.1468 22.696C87.1468 23.048 86.9708 23.368 86.6188 23.656C86.1868 24.072 85.5868 24.44 84.8188 24.76C84.0668 25.08 83.2748 25.24 82.4428 25.24Z" fill="white"/>
<path d="M97.0356 12.088C98.1716 12.088 99.0516 12.328 99.6756 12.808C100.3 13.272 100.732 13.904 100.972 14.704C101.228 15.488 101.356 16.368 101.356 17.344V23.776C101.356 24.128 101.236 24.424 100.996 24.664C100.772 24.888 100.492 25 100.156 25C99.8036 25 99.5156 24.888 99.2916 24.664C99.0676 24.424 98.9556 24.128 98.9556 23.776V17.368C98.9556 16.792 98.8756 16.28 98.7156 15.832C98.5556 15.368 98.2756 15 97.8756 14.728C97.4916 14.44 96.9476 14.296 96.2436 14.296C95.5876 14.296 95.0116 14.44 94.5156 14.728C94.0196 15 93.6276 15.368 93.3396 15.832C93.0676 16.28 92.9316 16.792 92.9316 17.368V23.776C92.9316 24.128 92.8116 24.424 92.5716 24.664C92.3476 24.888 92.0676 25 91.7316 25C91.3796 25 91.0916 24.888 90.8676 24.664C90.6436 24.424 90.5316 24.128 90.5316 23.776V13.6C90.5316 13.248 90.6436 12.96 90.8676 12.736C91.0916 12.496 91.3796 12.376 91.7316 12.376C92.0676 12.376 92.3476 12.496 92.5716 12.736C92.8116 12.96 92.9316 13.248 92.9316 13.6V14.944L92.4996 15.184C92.6116 14.832 92.8036 14.48 93.0756 14.128C93.3636 13.76 93.7076 13.424 94.1076 13.12C94.5076 12.8 94.9556 12.552 95.4516 12.376C95.9476 12.184 96.4756 12.088 97.0356 12.088Z" fill="white"/>
<path d="M115.032 7.23999C115.384 7.23999 115.672 7.35199 115.896 7.57599C116.12 7.79999 116.232 8.09599 116.232 8.46399V23.776C116.232 24.128 116.12 24.424 115.896 24.664C115.672 24.888 115.384 25 115.032 25C114.696 25 114.408 24.888 114.168 24.664C113.944 24.424 113.832 24.128 113.832 23.776V22.048L114.336 22.072C114.336 22.36 114.216 22.688 113.976 23.056C113.752 23.408 113.44 23.752 113.04 24.088C112.64 24.424 112.168 24.704 111.624 24.928C111.08 25.136 110.496 25.24 109.872 25.24C108.768 25.24 107.776 24.96 106.896 24.4C106.016 23.824 105.32 23.048 104.808 22.072C104.296 21.08 104.04 19.944 104.04 18.664C104.04 17.384 104.296 16.256 104.808 15.28C105.32 14.288 106.008 13.512 106.872 12.952C107.752 12.376 108.728 12.088 109.8 12.088C110.472 12.088 111.096 12.2 111.672 12.424C112.264 12.648 112.776 12.936 113.208 13.288C113.64 13.64 113.976 14.016 114.216 14.416C114.456 14.8 114.576 15.168 114.576 15.52L113.832 15.592V8.46399C113.832 8.11199 113.944 7.82399 114.168 7.59999C114.408 7.35999 114.696 7.23999 115.032 7.23999ZM110.136 23.032C110.904 23.032 111.568 22.84 112.128 22.456C112.704 22.072 113.152 21.552 113.472 20.896C113.792 20.24 113.952 19.496 113.952 18.664C113.952 17.832 113.792 17.088 113.472 16.432C113.152 15.776 112.704 15.256 112.128 14.872C111.552 14.488 110.888 14.296 110.136 14.296C109.4 14.296 108.744 14.488 108.168 14.872C107.608 15.256 107.16 15.776 106.824 16.432C106.504 17.088 106.344 17.832 106.344 18.664C106.344 19.496 106.504 20.24 106.824 20.896C107.16 21.552 107.608 22.072 108.168 22.456C108.744 22.84 109.4 23.032 110.136 23.032Z" fill="white"/>
</g>
</g>
</svg>
