<svg xmlns="http://www.w3.org/2000/svg" width="16" height="16" viewBox="0 0 16 16" fill="none">
  <g clip-path="url(#clip0_17_78)">
    <path d="M12.0207 11.078L14.876 13.9327L13.9327 14.876L11.078 12.0207C10.0158 12.8721 8.69467 13.3353 7.33334 13.3333C4.02134 13.3333 1.33334 10.6453 1.33334 7.33333C1.33334 4.02133 4.02134 1.33333 7.33334 1.33333C10.6453 1.33333 13.3333 4.02133 13.3333 7.33333C13.3353 8.69467 12.8722 10.0158 12.0207 11.078ZM10.6833 10.5833C11.5294 9.71326 12.0019 8.54695 12 7.33333C12 4.75467 9.91134 2.66667 7.33334 2.66667C4.75467 2.66667 2.66667 4.75467 2.66667 7.33333C2.66667 9.91133 4.75467 12 7.33334 12C8.54696 12.0019 9.71326 11.5294 10.5833 10.6833L10.6833 10.5833Z" fill="#6F6F6F"/>
  </g>
  <defs>
    <clipPath id="clip0_17_78">
      <rect width="16" height="16" fill="white"/>
    </clipPath>
  </defs>
</svg>